<svg width="25" height="24" viewBox="0 0 25 24" fill="none" xmlns="http://www.w3.org/2000/svg">
<path d="M1.5 8.10976L1.19131 7.42623C0.922666 7.54755 0.75 7.81499 0.75 8.10976H1.5ZM15.527 1.77498L15.2183 1.09145L15.527 1.77498ZM23.0357 10.1098V20.7857H24.5357V10.1098H23.0357ZM21.7857 22.0357H3.5V23.5357H21.7857V22.0357ZM2.25 20.7857V8.10976H0.75V20.7857H2.25ZM1.80869 8.79328L15.8357 2.45851L15.2183 1.09145L1.19131 7.42623L1.80869 8.79328ZM1.5 8.85976H18.3502V7.35976H1.5V8.85976ZM18.3502 8.85976H21.7857V7.35976H18.3502V8.85976ZM17.6002 3.59772V8.10976H19.1002V3.59772H17.6002ZM15.8357 2.45851C16.663 2.08487 17.6002 2.68993 17.6002 3.59772H19.1002C19.1002 1.60057 17.0385 0.269453 15.2183 1.09145L15.8357 2.45851ZM3.5 22.0357C2.80964 22.0357 2.25 21.4761 2.25 20.7857H0.75C0.75 22.3045 1.98122 23.5357 3.5 23.5357V22.0357ZM23.0357 20.7857C23.0357 21.4761 22.4761 22.0357 21.7857 22.0357V23.5357C23.3045 23.5357 24.5357 22.3045 24.5357 20.7857H23.0357ZM24.5357 10.1098C24.5357 8.59097 23.3045 7.35976 21.7857 7.35976V8.85976C22.4761 8.85976 23.0357 9.4194 23.0357 10.1098H24.5357Z" fill="url(#paint0_linear)"/>
<defs>
<linearGradient id="paint0_linear" x1="1.5" y1="11.7415" x2="23.7857" y2="11.7415" gradientUnits="userSpaceOnUse">
<stop stop-color="#A384F3"/>
<stop offset="1" stop-color="#94DDF4"/>
</linearGradient>
</defs>
</svg>
